%TF.GenerationSoftware,KiCad,Pcbnew,7.0.9*%
%TF.CreationDate,2024-01-03T21:17:43+01:00*%
%TF.ProjectId,diy_robotics_gripper,6469795f-726f-4626-9f74-6963735f6772,rev?*%
%TF.SameCoordinates,Original*%
%TF.FileFunction,Copper,L1,Top*%
%TF.FilePolarity,Positive*%
%FSLAX46Y46*%
G04 Gerber Fmt 4.6, Leading zero omitted, Abs format (unit mm)*
G04 Created by KiCad (PCBNEW 7.0.9) date 2024-01-03 21:17:43*
%MOMM*%
%LPD*%
G01*
G04 APERTURE LIST*
%TA.AperFunction,ComponentPad*%
%ADD10R,2.600000X2.600000*%
%TD*%
%TA.AperFunction,ComponentPad*%
%ADD11C,2.600000*%
%TD*%
%TA.AperFunction,ComponentPad*%
%ADD12R,1.700000X1.700000*%
%TD*%
%TA.AperFunction,ComponentPad*%
%ADD13O,1.700000X1.700000*%
%TD*%
%TA.AperFunction,ComponentPad*%
%ADD14C,5.600000*%
%TD*%
%TA.AperFunction,ComponentPad*%
%ADD15O,1.600000X2.000000*%
%TD*%
%TA.AperFunction,ComponentPad*%
%ADD16R,1.560000X1.560000*%
%TD*%
%TA.AperFunction,ComponentPad*%
%ADD17C,1.560000*%
%TD*%
%TA.AperFunction,Conductor*%
%ADD18C,1.000000*%
%TD*%
%TA.AperFunction,Conductor*%
%ADD19C,0.250000*%
%TD*%
G04 APERTURE END LIST*
D10*
%TO.P,J5,1,Pin_1*%
%TO.N,/5V*%
X72390000Y-33985000D03*
D11*
%TO.P,J5,2,Pin_2*%
%TO.N,/GND*%
X67390000Y-33985000D03*
%TD*%
D10*
%TO.P,J4,1,Pin_1*%
%TO.N,/GND*%
X48220000Y-33985000D03*
D11*
%TO.P,J4,2,Pin_2*%
%TO.N,/ServoVCC*%
X43220000Y-33985000D03*
%TD*%
D12*
%TO.P,J1,1,Pin_1*%
%TO.N,/GND*%
X39370000Y-60960000D03*
D13*
%TO.P,J1,2,Pin_2*%
%TO.N,S2*%
X39370000Y-58420000D03*
%TO.P,J1,3,Pin_3*%
%TO.N,S1*%
X39370000Y-55880000D03*
%TO.P,J1,4,Pin_4*%
%TO.N,/ServoVCC*%
X39370000Y-53340000D03*
%TD*%
D14*
%TO.P,H1,1*%
%TO.N,N/C*%
X30480000Y-30480000D03*
%TD*%
D12*
%TO.P,J2,1,Pin_1*%
%TO.N,Net-(J2-Pin_1)*%
X76200000Y-140970000D03*
D13*
%TO.P,J2,2,Pin_2*%
%TO.N,Net-(J2-Pin_2)*%
X76200000Y-138430000D03*
%TO.P,J2,3,Pin_3*%
%TO.N,Net-(J2-Pin_3)*%
X76200000Y-135890000D03*
%TO.P,J2,4,Pin_4*%
%TO.N,Net-(J2-Pin_4)*%
X76200000Y-133350000D03*
%TO.P,J2,5,Pin_5*%
%TO.N,Net-(J2-Pin_5)*%
X76200000Y-130810000D03*
%TO.P,J2,6,Pin_6*%
%TO.N,Net-(J2-Pin_6)*%
X76200000Y-128270000D03*
%TO.P,J2,7,Pin_7*%
%TO.N,Net-(J2-Pin_7)*%
X76200000Y-125730000D03*
%TO.P,J2,8,Pin_8*%
%TO.N,Net-(J2-Pin_8)*%
X76200000Y-123190000D03*
%TO.P,J2,9,Pin_9*%
%TO.N,Net-(J2-Pin_9)*%
X76200000Y-120650000D03*
%TO.P,J2,10,Pin_10*%
%TO.N,Net-(J2-Pin_10)*%
X76200000Y-118110000D03*
%TO.P,J2,11,Pin_11*%
%TO.N,S1*%
X76200000Y-115570000D03*
%TO.P,J2,12,Pin_12*%
%TO.N,S2*%
X76200000Y-113030000D03*
%TO.P,J2,13,Pin_13*%
%TO.N,Net-(J2-Pin_13)*%
X76200000Y-110490000D03*
%TO.P,J2,14,Pin_14*%
%TO.N,Disp_SDA*%
X76200000Y-107950000D03*
%TO.P,J2,15,Pin_15*%
%TO.N,Net-(J2-Pin_15)*%
X76200000Y-105410000D03*
%TO.P,J2,16,Pin_16*%
%TO.N,Net-(J2-Pin_16)*%
X76200000Y-102870000D03*
%TO.P,J2,17,Pin_17*%
%TO.N,Disp_SCL*%
X76200000Y-100330000D03*
%TO.P,J2,18,Pin_18*%
%TO.N,Net-(J2-Pin_18)*%
X76200000Y-97790000D03*
%TO.P,J2,19,Pin_19*%
%TO.N,Net-(J2-Pin_19)*%
X76200000Y-95250000D03*
%TD*%
D14*
%TO.P,H2,1*%
%TO.N,N/C*%
X30480000Y-139700000D03*
%TD*%
D15*
%TO.P,Brd1,1,GND*%
%TO.N,/GND*%
X74930000Y-67310000D03*
%TO.P,Brd1,2,VCC*%
%TO.N,/5V*%
X72390000Y-67310000D03*
%TO.P,Brd1,3,SCL*%
%TO.N,Disp_SCL*%
X69850000Y-67310000D03*
%TO.P,Brd1,4,SDA*%
%TO.N,Disp_SDA*%
X67310000Y-67310000D03*
%TD*%
D16*
%TO.P,U7,J2-1,3V3*%
%TO.N,Net-(J3-Pin_19)*%
X44450000Y-95250000D03*
D17*
%TO.P,U7,J2-2,EN*%
%TO.N,Net-(J3-Pin_18)*%
X44450000Y-97790000D03*
%TO.P,U7,J2-3,SENSOR_VP*%
%TO.N,Net-(J3-Pin_17)*%
X44450000Y-100330000D03*
%TO.P,U7,J2-4,SENSOR_VN*%
%TO.N,Net-(J3-Pin_16)*%
X44450000Y-102870000D03*
%TO.P,U7,J2-5,IO34*%
%TO.N,Net-(J3-Pin_15)*%
X44450000Y-105410000D03*
%TO.P,U7,J2-6,IO35*%
%TO.N,Net-(J3-Pin_14)*%
X44450000Y-107950000D03*
%TO.P,U7,J2-7,IO32*%
%TO.N,Net-(J3-Pin_13)*%
X44450000Y-110490000D03*
%TO.P,U7,J2-8,IO33*%
%TO.N,Net-(J3-Pin_12)*%
X44450000Y-113030000D03*
%TO.P,U7,J2-9,IO25*%
%TO.N,Net-(J3-Pin_11)*%
X44450000Y-115570000D03*
%TO.P,U7,J2-10,IO26*%
%TO.N,Net-(J3-Pin_10)*%
X44450000Y-118110000D03*
%TO.P,U7,J2-11,IO27*%
%TO.N,Net-(J3-Pin_9)*%
X44450000Y-120650000D03*
%TO.P,U7,J2-12,IO14*%
%TO.N,Net-(J3-Pin_8)*%
X44450000Y-123190000D03*
%TO.P,U7,J2-13,IO12*%
%TO.N,Net-(J3-Pin_7)*%
X44450000Y-125730000D03*
%TO.P,U7,J2-14,GND1*%
%TO.N,/GND*%
X44450000Y-128270000D03*
%TO.P,U7,J2-15,IO13*%
%TO.N,Net-(J3-Pin_5)*%
X44450000Y-130810000D03*
%TO.P,U7,J2-16,SD2*%
%TO.N,Net-(J3-Pin_4)*%
X44450000Y-133350000D03*
%TO.P,U7,J2-17,SD3*%
%TO.N,Net-(J3-Pin_3)*%
X44450000Y-135890000D03*
%TO.P,U7,J2-18,CMD*%
%TO.N,Net-(J3-Pin_2)*%
X44450000Y-138430000D03*
%TO.P,U7,J2-19,EXT_5V*%
%TO.N,/5V*%
X44450000Y-140970000D03*
%TO.P,U7,J3-1,GND3*%
%TO.N,Net-(J2-Pin_19)*%
X69850000Y-95250000D03*
%TO.P,U7,J3-2,IO23*%
%TO.N,Net-(J2-Pin_18)*%
X69850000Y-97790000D03*
%TO.P,U7,J3-3,IO22*%
%TO.N,Disp_SCL*%
X69850000Y-100330000D03*
%TO.P,U7,J3-4,TXD0*%
%TO.N,Net-(J2-Pin_16)*%
X69850000Y-102870000D03*
%TO.P,U7,J3-5,RXD0*%
%TO.N,Net-(J2-Pin_15)*%
X69850000Y-105410000D03*
%TO.P,U7,J3-6,IO21*%
%TO.N,Disp_SDA*%
X69850000Y-107950000D03*
%TO.P,U7,J3-7,GND2*%
%TO.N,Net-(J2-Pin_13)*%
X69850000Y-110490000D03*
%TO.P,U7,J3-8,IO19*%
%TO.N,S2*%
X69850000Y-113030000D03*
%TO.P,U7,J3-9,IO18*%
%TO.N,S1*%
X69850000Y-115570000D03*
%TO.P,U7,J3-10,IO5*%
%TO.N,Net-(J2-Pin_10)*%
X69850000Y-118110000D03*
%TO.P,U7,J3-11,IO17*%
%TO.N,Net-(J2-Pin_9)*%
X69850000Y-120650000D03*
%TO.P,U7,J3-12,IO16*%
%TO.N,Net-(J2-Pin_8)*%
X69850000Y-123190000D03*
%TO.P,U7,J3-13,IO4*%
%TO.N,Net-(J2-Pin_7)*%
X69850000Y-125730000D03*
%TO.P,U7,J3-14,IO0*%
%TO.N,Net-(J2-Pin_6)*%
X69850000Y-128270000D03*
%TO.P,U7,J3-15,IO2*%
%TO.N,Net-(J2-Pin_5)*%
X69850000Y-130810000D03*
%TO.P,U7,J3-16,IO15*%
%TO.N,Net-(J2-Pin_4)*%
X69850000Y-133350000D03*
%TO.P,U7,J3-17,SD1*%
%TO.N,Net-(J2-Pin_3)*%
X69850000Y-135890000D03*
%TO.P,U7,J3-18,SD0*%
%TO.N,Net-(J2-Pin_2)*%
X69850000Y-138430000D03*
%TO.P,U7,J3-19,CLK*%
%TO.N,Net-(J2-Pin_1)*%
X69850000Y-140970000D03*
%TD*%
D14*
%TO.P,H3,1*%
%TO.N,N/C*%
X83820000Y-30480000D03*
%TD*%
%TO.P,H4,1*%
%TO.N,N/C*%
X83820000Y-139700000D03*
%TD*%
D12*
%TO.P,J3,1,Pin_1*%
%TO.N,/5V*%
X38100000Y-140970000D03*
D13*
%TO.P,J3,2,Pin_2*%
%TO.N,Net-(J3-Pin_2)*%
X38100000Y-138430000D03*
%TO.P,J3,3,Pin_3*%
%TO.N,Net-(J3-Pin_3)*%
X38100000Y-135890000D03*
%TO.P,J3,4,Pin_4*%
%TO.N,Net-(J3-Pin_4)*%
X38100000Y-133350000D03*
%TO.P,J3,5,Pin_5*%
%TO.N,Net-(J3-Pin_5)*%
X38100000Y-130810000D03*
%TO.P,J3,6,Pin_6*%
%TO.N,/GND*%
X38100000Y-128270000D03*
%TO.P,J3,7,Pin_7*%
%TO.N,Net-(J3-Pin_7)*%
X38100000Y-125730000D03*
%TO.P,J3,8,Pin_8*%
%TO.N,Net-(J3-Pin_8)*%
X38100000Y-123190000D03*
%TO.P,J3,9,Pin_9*%
%TO.N,Net-(J3-Pin_9)*%
X38100000Y-120650000D03*
%TO.P,J3,10,Pin_10*%
%TO.N,Net-(J3-Pin_10)*%
X38100000Y-118110000D03*
%TO.P,J3,11,Pin_11*%
%TO.N,Net-(J3-Pin_11)*%
X38100000Y-115570000D03*
%TO.P,J3,12,Pin_12*%
%TO.N,Net-(J3-Pin_12)*%
X38100000Y-113030000D03*
%TO.P,J3,13,Pin_13*%
%TO.N,Net-(J3-Pin_13)*%
X38100000Y-110490000D03*
%TO.P,J3,14,Pin_14*%
%TO.N,Net-(J3-Pin_14)*%
X38100000Y-107950000D03*
%TO.P,J3,15,Pin_15*%
%TO.N,Net-(J3-Pin_15)*%
X38100000Y-105410000D03*
%TO.P,J3,16,Pin_16*%
%TO.N,Net-(J3-Pin_16)*%
X38100000Y-102870000D03*
%TO.P,J3,17,Pin_17*%
%TO.N,Net-(J3-Pin_17)*%
X38100000Y-100330000D03*
%TO.P,J3,18,Pin_18*%
%TO.N,Net-(J3-Pin_18)*%
X38100000Y-97790000D03*
%TO.P,J3,19,Pin_19*%
%TO.N,Net-(J3-Pin_19)*%
X38100000Y-95250000D03*
%TD*%
D18*
%TO.N,/GND*%
X74930000Y-64610000D02*
X74930000Y-67310000D01*
X67390000Y-57070000D02*
X74930000Y-64610000D01*
X67390000Y-33985000D02*
X67390000Y-57070000D01*
X48220000Y-54570000D02*
X48260000Y-54610000D01*
X48220000Y-33985000D02*
X48220000Y-54570000D01*
X41910000Y-60960000D02*
X48260000Y-54610000D01*
X67390000Y-33985000D02*
X48220000Y-33985000D01*
%TO.N,/ServoVCC*%
X43180000Y-49530000D02*
X39370000Y-53340000D01*
X43180000Y-34025000D02*
X43180000Y-49530000D01*
X43220000Y-33985000D02*
X43180000Y-34025000D01*
%TO.N,/GND*%
X39370000Y-60960000D02*
X41910000Y-60960000D01*
%TO.N,/5V*%
X73660000Y-71120000D02*
X72390000Y-69850000D01*
X76200000Y-71120000D02*
X73660000Y-71120000D01*
X77470000Y-69850000D02*
X76200000Y-71120000D01*
X72390000Y-69850000D02*
X72390000Y-67310000D01*
X77470000Y-63500000D02*
X77470000Y-69850000D01*
X72390000Y-58420000D02*
X77470000Y-63500000D01*
X72390000Y-33985000D02*
X72390000Y-58420000D01*
%TO.N,/GND*%
X39370000Y-60960000D02*
X39370000Y-63500000D01*
X48260000Y-72390000D02*
X48260000Y-127000000D01*
X39370000Y-63500000D02*
X48260000Y-72390000D01*
X44450000Y-128270000D02*
X38100000Y-128270000D01*
X48260000Y-127000000D02*
X46990000Y-128270000D01*
X46990000Y-128270000D02*
X44450000Y-128270000D01*
D19*
%TO.N,Net-(J2-Pin_1)*%
X76200000Y-140970000D02*
X69850000Y-140970000D01*
%TO.N,Net-(J2-Pin_2)*%
X76200000Y-138430000D02*
X69850000Y-138430000D01*
%TO.N,Net-(J2-Pin_3)*%
X76200000Y-135890000D02*
X69850000Y-135890000D01*
%TO.N,Net-(J2-Pin_4)*%
X76200000Y-133350000D02*
X69850000Y-133350000D01*
%TO.N,Net-(J2-Pin_5)*%
X76200000Y-130810000D02*
X69850000Y-130810000D01*
%TO.N,Net-(J2-Pin_6)*%
X76200000Y-128270000D02*
X69850000Y-128270000D01*
%TO.N,Net-(J2-Pin_7)*%
X76200000Y-125730000D02*
X69850000Y-125730000D01*
%TO.N,Net-(J2-Pin_8)*%
X76200000Y-123190000D02*
X69850000Y-123190000D01*
%TO.N,Net-(J2-Pin_9)*%
X76200000Y-120650000D02*
X69850000Y-120650000D01*
%TO.N,Net-(J2-Pin_10)*%
X76200000Y-118110000D02*
X69850000Y-118110000D01*
%TO.N,S1*%
X76200000Y-115570000D02*
X69850000Y-115570000D01*
%TO.N,S2*%
X76200000Y-113030000D02*
X69850000Y-113030000D01*
%TO.N,Net-(J2-Pin_13)*%
X76200000Y-110490000D02*
X69850000Y-110490000D01*
%TO.N,Net-(J2-Pin_15)*%
X76200000Y-105410000D02*
X69850000Y-105410000D01*
%TO.N,Net-(J2-Pin_16)*%
X76200000Y-102870000D02*
X69850000Y-102870000D01*
%TO.N,Net-(J2-Pin_18)*%
X76200000Y-97790000D02*
X69850000Y-97790000D01*
%TO.N,Net-(J2-Pin_19)*%
X76200000Y-95250000D02*
X69850000Y-95250000D01*
%TO.N,Net-(J3-Pin_2)*%
X44450000Y-138430000D02*
X38100000Y-138430000D01*
%TO.N,Net-(J3-Pin_3)*%
X44450000Y-135890000D02*
X38100000Y-135890000D01*
%TO.N,Net-(J3-Pin_4)*%
X44450000Y-133350000D02*
X38100000Y-133350000D01*
%TO.N,Net-(J3-Pin_5)*%
X44450000Y-130810000D02*
X38100000Y-130810000D01*
%TO.N,Net-(J3-Pin_7)*%
X44450000Y-125730000D02*
X38100000Y-125730000D01*
%TO.N,Net-(J3-Pin_8)*%
X44450000Y-123190000D02*
X38100000Y-123190000D01*
%TO.N,Net-(J3-Pin_9)*%
X44450000Y-120650000D02*
X38100000Y-120650000D01*
%TO.N,Net-(J3-Pin_10)*%
X44450000Y-118110000D02*
X38100000Y-118110000D01*
%TO.N,Net-(J3-Pin_11)*%
X44450000Y-115570000D02*
X38100000Y-115570000D01*
%TO.N,Net-(J3-Pin_12)*%
X44450000Y-113030000D02*
X38100000Y-113030000D01*
%TO.N,Net-(J3-Pin_13)*%
X44450000Y-110490000D02*
X38100000Y-110490000D01*
%TO.N,Net-(J3-Pin_14)*%
X44450000Y-107950000D02*
X38100000Y-107950000D01*
%TO.N,Net-(J3-Pin_15)*%
X44450000Y-105410000D02*
X38100000Y-105410000D01*
%TO.N,Net-(J3-Pin_16)*%
X44450000Y-102870000D02*
X38100000Y-102870000D01*
%TO.N,Net-(J3-Pin_17)*%
X44450000Y-100330000D02*
X38100000Y-100330000D01*
%TO.N,Net-(J3-Pin_18)*%
X44450000Y-97790000D02*
X38100000Y-97790000D01*
%TO.N,Net-(J3-Pin_19)*%
X44450000Y-95250000D02*
X38100000Y-95250000D01*
%TO.N,Disp_SCL*%
X68580000Y-100330000D02*
X69850000Y-100330000D01*
X66040000Y-73660000D02*
X69850000Y-69850000D01*
X66040000Y-73660000D02*
X66040000Y-97790000D01*
X69850000Y-69850000D02*
X69850000Y-67310000D01*
X66040000Y-97790000D02*
X68580000Y-100330000D01*
X76200000Y-100330000D02*
X69850000Y-100330000D01*
%TO.N,Disp_SDA*%
X63500000Y-73660000D02*
X63500000Y-102870000D01*
X67310000Y-67310000D02*
X67310000Y-69850000D01*
X76200000Y-107950000D02*
X69850000Y-107950000D01*
X63500000Y-102870000D02*
X68580000Y-107950000D01*
X68580000Y-107950000D02*
X69850000Y-107950000D01*
X67310000Y-69850000D02*
X63500000Y-73660000D01*
D18*
%TO.N,/5V*%
X45720000Y-140970000D02*
X44450000Y-140970000D01*
X59690000Y-63500000D02*
X53340000Y-69850000D01*
X72390000Y-67310000D02*
X72390000Y-66040000D01*
X44450000Y-140970000D02*
X38100000Y-140970000D01*
X53340000Y-133350000D02*
X45720000Y-140970000D01*
X69850000Y-63500000D02*
X59690000Y-63500000D01*
X53340000Y-69850000D02*
X53340000Y-133350000D01*
X72390000Y-66040000D02*
X69850000Y-63500000D01*
%TD*%
M02*
