M48
; DRILL file {KiCad 7.0.9} date Wed Jan  3 21:17:59 2024
; FORMAT={-:-/ absolute / inch / decimal}
; #@! TF.CreationDate,2024-01-03T21:17:59+01:00
; #@! TF.GenerationSoftware,Kicad,Pcbnew,7.0.9
; #@! TF.FileFunction,Plated,1,2,PTH
FMAT,2
INCH
; #@! TA.AperFunction,Plated,PTH,ComponentDrill
T1C0.0394
; #@! TA.AperFunction,Plated,PTH,ComponentDrill
T2C0.0409
; #@! TA.AperFunction,Plated,PTH,ComponentDrill
T3C0.0512
; #@! TA.AperFunction,Plated,PTH,ComponentDrill
T4C0.1260
%
G90
G05
T1
X1.5Y-3.75
X1.5Y-3.85
X1.5Y-3.95
X1.5Y-4.05
X1.5Y-4.15
X1.5Y-4.25
X1.5Y-4.35
X1.5Y-4.45
X1.5Y-4.55
X1.5Y-4.65
X1.5Y-4.75
X1.5Y-4.85
X1.5Y-4.95
X1.5Y-5.05
X1.5Y-5.15
X1.5Y-5.25
X1.5Y-5.35
X1.5Y-5.45
X1.5Y-5.55
X1.55Y-2.1
X1.55Y-2.2
X1.55Y-2.3
X1.55Y-2.4
X2.65Y-2.65
X2.75Y-2.65
X2.85Y-2.65
X2.95Y-2.65
X3.0Y-3.75
X3.0Y-3.85
X3.0Y-3.95
X3.0Y-4.05
X3.0Y-4.15
X3.0Y-4.25
X3.0Y-4.35
X3.0Y-4.45
X3.0Y-4.55
X3.0Y-4.65
X3.0Y-4.75
X3.0Y-4.85
X3.0Y-4.95
X3.0Y-5.05
X3.0Y-5.15
X3.0Y-5.25
X3.0Y-5.35
X3.0Y-5.45
X3.0Y-5.55
T2
X1.75Y-3.75
X1.75Y-3.85
X1.75Y-3.95
X1.75Y-4.05
X1.75Y-4.15
X1.75Y-4.25
X1.75Y-4.35
X1.75Y-4.45
X1.75Y-4.55
X1.75Y-4.65
X1.75Y-4.75
X1.75Y-4.85
X1.75Y-4.95
X1.75Y-5.05
X1.75Y-5.15
X1.75Y-5.25
X1.75Y-5.35
X1.75Y-5.45
X1.75Y-5.55
X2.75Y-3.75
X2.75Y-3.85
X2.75Y-3.95
X2.75Y-4.05
X2.75Y-4.15
X2.75Y-4.25
X2.75Y-4.35
X2.75Y-4.45
X2.75Y-4.55
X2.75Y-4.65
X2.75Y-4.75
X2.75Y-4.85
X2.75Y-4.95
X2.75Y-5.05
X2.75Y-5.15
X2.75Y-5.25
X2.75Y-5.35
X2.75Y-5.45
X2.75Y-5.55
T3
X1.7016Y-1.338
X1.8984Y-1.338
X2.6531Y-1.338
X2.85Y-1.338
T4
X1.2Y-1.2
X1.2Y-5.5
X3.3Y-1.2
X3.3Y-5.5
T0
M30
