%TF.GenerationSoftware,KiCad,Pcbnew,7.0.9*%
%TF.CreationDate,2024-01-03T21:17:43+01:00*%
%TF.ProjectId,diy_robotics_gripper,6469795f-726f-4626-9f74-6963735f6772,rev?*%
%TF.SameCoordinates,Original*%
%TF.FileFunction,Soldermask,Bot*%
%TF.FilePolarity,Negative*%
%FSLAX46Y46*%
G04 Gerber Fmt 4.6, Leading zero omitted, Abs format (unit mm)*
G04 Created by KiCad (PCBNEW 7.0.9) date 2024-01-03 21:17:43*
%MOMM*%
%LPD*%
G01*
G04 APERTURE LIST*
G04 Aperture macros list*
%AMRoundRect*
0 Rectangle with rounded corners*
0 $1 Rounding radius*
0 $2 $3 $4 $5 $6 $7 $8 $9 X,Y pos of 4 corners*
0 Add a 4 corners polygon primitive as box body*
4,1,4,$2,$3,$4,$5,$6,$7,$8,$9,$2,$3,0*
0 Add four circle primitives for the rounded corners*
1,1,$1+$1,$2,$3*
1,1,$1+$1,$4,$5*
1,1,$1+$1,$6,$7*
1,1,$1+$1,$8,$9*
0 Add four rect primitives between the rounded corners*
20,1,$1+$1,$2,$3,$4,$5,0*
20,1,$1+$1,$4,$5,$6,$7,0*
20,1,$1+$1,$6,$7,$8,$9,0*
20,1,$1+$1,$8,$9,$2,$3,0*%
G04 Aperture macros list end*
%ADD10R,2.600000X2.600000*%
%ADD11C,2.600000*%
%ADD12R,1.700000X1.700000*%
%ADD13O,1.700000X1.700000*%
%ADD14C,5.600000*%
%ADD15O,1.600000X2.000000*%
%ADD16RoundRect,0.102000X-0.780000X-0.780000X0.780000X-0.780000X0.780000X0.780000X-0.780000X0.780000X0*%
%ADD17C,1.764000*%
G04 APERTURE END LIST*
D10*
%TO.C,J5*%
X72390000Y-33985000D03*
D11*
X67390000Y-33985000D03*
%TD*%
D10*
%TO.C,J4*%
X48220000Y-33985000D03*
D11*
X43220000Y-33985000D03*
%TD*%
D12*
%TO.C,J1*%
X39370000Y-60960000D03*
D13*
X39370000Y-58420000D03*
X39370000Y-55880000D03*
X39370000Y-53340000D03*
%TD*%
D14*
%TO.C,H1*%
X30480000Y-30480000D03*
%TD*%
D12*
%TO.C,J2*%
X76200000Y-140970000D03*
D13*
X76200000Y-138430000D03*
X76200000Y-135890000D03*
X76200000Y-133350000D03*
X76200000Y-130810000D03*
X76200000Y-128270000D03*
X76200000Y-125730000D03*
X76200000Y-123190000D03*
X76200000Y-120650000D03*
X76200000Y-118110000D03*
X76200000Y-115570000D03*
X76200000Y-113030000D03*
X76200000Y-110490000D03*
X76200000Y-107950000D03*
X76200000Y-105410000D03*
X76200000Y-102870000D03*
X76200000Y-100330000D03*
X76200000Y-97790000D03*
X76200000Y-95250000D03*
%TD*%
D14*
%TO.C,H2*%
X30480000Y-139700000D03*
%TD*%
D15*
%TO.C,Brd1*%
X74930000Y-67310000D03*
X72390000Y-67310000D03*
X69850000Y-67310000D03*
X67310000Y-67310000D03*
%TD*%
D16*
%TO.C,U7*%
X44450000Y-95250000D03*
D17*
X44450000Y-97790000D03*
X44450000Y-100330000D03*
X44450000Y-102870000D03*
X44450000Y-105410000D03*
X44450000Y-107950000D03*
X44450000Y-110490000D03*
X44450000Y-113030000D03*
X44450000Y-115570000D03*
X44450000Y-118110000D03*
X44450000Y-120650000D03*
X44450000Y-123190000D03*
X44450000Y-125730000D03*
X44450000Y-128270000D03*
X44450000Y-130810000D03*
X44450000Y-133350000D03*
X44450000Y-135890000D03*
X44450000Y-138430000D03*
X44450000Y-140970000D03*
X69850000Y-95250000D03*
X69850000Y-97790000D03*
X69850000Y-100330000D03*
X69850000Y-102870000D03*
X69850000Y-105410000D03*
X69850000Y-107950000D03*
X69850000Y-110490000D03*
X69850000Y-113030000D03*
X69850000Y-115570000D03*
X69850000Y-118110000D03*
X69850000Y-120650000D03*
X69850000Y-123190000D03*
X69850000Y-125730000D03*
X69850000Y-128270000D03*
X69850000Y-130810000D03*
X69850000Y-133350000D03*
X69850000Y-135890000D03*
X69850000Y-138430000D03*
X69850000Y-140970000D03*
%TD*%
D14*
%TO.C,H3*%
X83820000Y-30480000D03*
%TD*%
%TO.C,H4*%
X83820000Y-139700000D03*
%TD*%
D12*
%TO.C,J3*%
X38100000Y-140970000D03*
D13*
X38100000Y-138430000D03*
X38100000Y-135890000D03*
X38100000Y-133350000D03*
X38100000Y-130810000D03*
X38100000Y-128270000D03*
X38100000Y-125730000D03*
X38100000Y-123190000D03*
X38100000Y-120650000D03*
X38100000Y-118110000D03*
X38100000Y-115570000D03*
X38100000Y-113030000D03*
X38100000Y-110490000D03*
X38100000Y-107950000D03*
X38100000Y-105410000D03*
X38100000Y-102870000D03*
X38100000Y-100330000D03*
X38100000Y-97790000D03*
X38100000Y-95250000D03*
%TD*%
M02*
